<?xml version="1.0" encoding="UTF-8" standalone="no"?>
<!-- Created with Inkscape (http://www.inkscape.org/) -->

<svg
   xmlns:dc="http://purl.org/dc/elements/1.1/"
   xmlns:cc="http://creativecommons.org/ns#"
   xmlns:rdf="http://www.w3.org/1999/02/22-rdf-syntax-ns#"
   xmlns:svg="http://www.w3.org/2000/svg"
   xmlns="http://www.w3.org/2000/svg"
   version="1.1"
   width="744.09448"
   height="1052.3622"
   id="svg2"
   >
  <defs
     id="defs4" />
  <metadata
     id="metadata7">
    <rdf:RDF>
      <cc:Work
         rdf:about="">
        <dc:format>image/svg+xml</dc:format>
        <dc:type
           rdf:resource="http://purl.org/dc/dcmitype/StillImage" />
        <dc:title></dc:title>
      </cc:Work>
    </rdf:RDF>
  </metadata>
  <g
     id="layer1">
    <path
       d="m 181.77231,635.17545 c -5.14782,-1.10389 -11.12393,-4.08957 -18.52343,-9.25434 -10.03736,-7.00596 -8.88286,-9.78927 2.7321,-6.58666 5.63757,1.55445 10.85414,2.20422 17.94759,2.2355 12.01875,0.053 22.023,-2.80413 35.77977,-10.21842 19.15039,-10.32122 25.0614,-15.38053 66.91581,-57.27399 39.48468,-39.52153 53.33995,-51.89639 76.80442,-68.598 50.71305,-36.09671 110.36416,-62.01479 161.16375,-70.02478 17.01004,-2.6821 48.77966,-2.42545 62.4403,0.50444 14.41624,3.09194 24.33912,6.59854 36.66158,12.95566 17.96634,9.26878 42.39897,30.60585 47.51916,41.49859 2.93759,6.24945 2.97239,14.53886 0.0861,20.5012 -3.2755,6.76627 -12.03698,15.62822 -17.97769,18.18385 -11.79964,5.07607 -20.76576,5.7657 -58.93902,4.53333 -40.36376,-1.30308 -71.01233,2.95545 -115.62201,16.06535 -38.83816,11.41376 -70.4647,24.13585 -150.33217,60.47261 -62.69679,28.52473 -85.10575,37.13926 -110.81837,42.60122 -12.48468,2.65203 -29.39312,3.78646 -35.83789,2.40444 z m -42.22609,-26.65917 c -7.88102,-8.09094 -9.46593,-11.15482 -12.71816,-24.58613 -3.71663,-15.34926 -4.78729,-27.82121 -3.45255,-40.21819 2.68299,-24.91949 10.74993,-43.5439 27.01446,-62.36922 6.63627,-7.68113 31.20093,-28.83514 42.00051,-36.16898 8.12149,-5.5152 30.72983,-16.35814 32.60644,-15.63802 1.99191,0.76437 1.79192,5.28578 -0.31835,7.19749 -0.9625,0.87193 -5.8,3.85282 -10.75,6.62419 -39.83548,22.30282 -67.35123,50.47835 -77.03955,78.88682 -9.25134,27.12715 -6.65969,55.65319 7.64098,84.10336 2.52396,5.02124 3.49394,7.93233 2.78836,8.3684 -0.59607,0.36839 -4.0864,-2.41579 -7.77214,-6.19972 z M 259.92857,545.1529 c -13.62848,-1.50807 -18.30927,-3.72426 -22.62928,-10.71419 -1.86081,-3.01085 -2.3993,-5.75425 -2.97459,-15.15418 -0.38635,-6.31278 -0.47288,-12.07603 -0.1923,-12.80721 0.40434,-1.0537 5.41384,-1.33117 24.15316,-1.33783 21.19452,-0.008 58.66962,-1.93287 69.89301,-3.59085 5.84637,-0.86366 5.54011,1.03561 -0.98353,6.09925 -2.83433,2.2 -12.5546,11.27898 -21.6006,20.17551 -15.63712,15.37874 -16.67433,16.20173 -21.05658,16.70772 -10.06327,1.16195 -17.93129,1.36074 -24.60929,0.62178 z m -23.39583,-47.37949 c -0.83414,-1.00507 -1.04172,-16.39185 -0.77235,-57.25 0.39805,-60.37659 0.22618,-58.26936 6.20492,-76.07969 3.45547,-10.29369 5.37105,-13.72698 12.15214,-21.78032 7.8244,-9.29238 13.74259,-13.59972 26.18114,-19.05502 14.29824,-6.27092 24.02442,-8.44485 37.82096,-8.45348 15.14616,-0.01 15.43462,0.76439 2.80902,7.53608 -3.85,2.06494 -10.15,5.84999 -14,8.41123 -15.54921,10.34422 -33.20904,20.53399 -40.39395,23.3074 -4.18333,1.61479 -8.38412,3.62771 -9.33509,4.47316 -4.04967,3.60027 -8.73884,21.50541 -11.22798,42.87296 -2.20096,18.89375 -4.55046,59.43077 -4.54646,78.44216 0.002,11.54304 -0.35956,16.91304 -1.19652,17.75 -1.54796,1.54796 -2.29563,1.51266 -3.69583,-0.17448 z M 514.55171,410.758 c -0.48925,-0.61056 -1.41088,-3.58231 -2.04807,-6.60389 -0.63719,-3.02159 -3.13177,-12.47159 -5.54351,-21 -11.09674,-39.24047 -21.38786,-59.39771 -33.39343,-65.40778 -15.55226,-7.78557 -41.26551,-10.43001 -69.14427,-7.11104 -30.79797,3.66649 -55.75239,13.45801 -87.99386,34.52669 -22.72935,14.85284 -36.03164,20.65942 -41.55909,18.14094 -4.45648,-2.03051 -2.93017,-4.59889 5.55909,-9.3545 17.30805,-9.69581 32.05403,-18.3884 41.5,-24.4638 20.21771,-13.0035 34.36262,-19.20328 56.51922,-24.77264 21.32377,-5.36002 31.23018,-6.69502 49.45874,-6.66512 13.75081,0.0226 17.49548,0.38873 26.41631,2.58317 11.3781,2.79889 24.73459,8.59758 29.90963,12.98518 9.98441,8.46519 19.12153,27.68324 29.59904,62.25548 7.02406,23.17702 9.04627,32.03099 7.68922,33.66614 -1.53783,1.85297 -5.85637,2.6097 -6.96902,1.22117 z M 347.23876,376.10492 c -16.9991,-1.98232 -29.81019,-8.53501 -29.81019,-15.2475 0,-4.51173 9.75144,-13.51738 20.54143,-18.97041 16.66115,-8.42019 61.67975,-16.81488 89.45856,-16.68146 13.08411,0.0628 18.34456,1.3512 18.8083,4.60645 0.37292,2.61781 -0.13466,2.79565 -13.67178,4.79021 -20.96576,3.08908 -43.01093,10.15727 -65.63651,21.04459 -10.69866,5.14814 -16.32421,9.35847 -15.11605,11.31332 0.32642,0.52815 3.54332,2.00166 7.14866,3.27445 6.80505,2.40239 9.09719,4.08527 7.99446,5.86951 -0.72495,1.173 -9.66196,1.17338 -19.71688,8.4e-4 z"
       id="path2996"
       style="fill:rgba(200, 29, 37, 1)" />
  </g>
</svg>
